<svg width="100" height="45" viewBox="0 0 329 45" fill="none" xmlns="http://www.w3.org/2000/svg">
    <path d="M243.5 10H85.5C76.9396 10 70 16.9396 70 25.5C70 34.0604 76.9396 41 85.5 41H243.5C252.06 41 259 34.0604 259 25.5C259 16.9396 252.06 10 243.5 10Z" fill="#3BC8EC"/>
    <path d="M243.5 10.5H85.5C77.2157 10.5 70.5 17.2157 70.5 25.5C70.5 33.7843 77.2157 40.5 85.5 40.5H243.5C251.784 40.5 258.5 33.7843 258.5 25.5C258.5 17.2157 251.784 10.5 243.5 10.5Z" stroke="#707070"/>
    <path d="M309 45C320.046 45 329 35.8218 329 24.5C329 13.1782 320.046 4 309 4C297.954 4 289 13.1782 289 24.5C289 35.8218 297.954 45 309 45Z" fill="#D9D9D9"/>
    <path d="M309 44.5C319.77 44.5 328.5 35.5457 328.5 24.5C328.5 13.4543 319.77 4.5 309 4.5C298.23 4.5 289.5 13.4543 289.5 24.5C289.5 35.5457 298.23 44.5 309 44.5Z" stroke="#707070"/>
    <path d="M20 41C31.0457 41 40 31.8218 40 20.5C40 9.17816 31.0457 0 20 0C8.9543 0 0 9.17816 0 20.5C0 31.8218 8.9543 41 20 41Z" fill="#D9D9D9"/>
    <path d="M20 40.5C30.7696 40.5 39.5 31.5457 39.5 20.5C39.5 9.4543 30.7696 0.5 20 0.5C9.23045 0.5 0.5 9.4543 0.5 20.5C0.5 31.5457 9.23045 40.5 20 40.5Z" stroke="#707070"/>
</svg>
